Coordinates
version=1
nRows=5
nColumns=46
inDegrees=yes

Units are S.I. units (second, meters, Newtons, ...)
Angles are in degrees.

endheader
time	pelvis_tilt	pelvis_list	pelvis_rotation	pelvis_tx	pelvis_ty	pelvis_tz	bb_angle	bb_tx	bb_ty	bb_tz	hip_flexion_r	hip_adduction_r	hip_rotation_r	knee_angle_r	knee_angle_r_beta	ankle_angle_r	subtalar_angle_r	mtp_angle_r	crank_angle_r	hip_flexion_l	hip_adduction_l	hip_rotation_l	knee_angle_l	knee_angle_l_beta	ankle_angle_l	subtalar_angle_l	mtp_angle_l	crank_angle_l	lumbar_extension	lumbar_bending	lumbar_rotation	arm_flex_r	arm_add_r	arm_rot_r	elbow_flex_r	pro_sup_r	wrist_flex_r	wrist_dev_r	arm_flex_l	arm_add_l	arm_rot_l	elbow_flex_l	pro_sup_l	wrist_flex_l	wrist_dev_l
      0.00500000	    -10.34369463	     -2.11604189	     -2.34394821	      0.12541648	      1.14530274	     -0.25012099	      0.00000000	      0.50000000	      0.00000000	      0.25000000	     73.72944052	     -2.81788346	     -3.44572249	     75.64065627	      1.32017850	     -0.18602548	     -8.24508283	      0.00000000	      0.00000000	     54.43819542	     -9.07434526	      1.94448959	     89.75401589	      1.56650309	     13.26510400	     -1.94872712	      0.00000000	      0.00000000	    -53.65355602	      2.17406965	      6.64657365	     89.78685467	     -2.55617678	     26.55391440	     28.52995651	     20.69101232	      0.00000000	      0.00000000	     89.67993517	      4.50365864	     23.26661056	     25.02475849	     20.49954733	      0.00000000	      0.00000000
      0.01000000	    -10.49390436	     -2.02904436	     -2.25228197	      0.12544321	      1.14491125	     -0.25050657	      0.00000000	      0.50000000	      0.00000000	      0.25000000	     73.91033108	     -2.99097641	     -3.39310755	     75.68597817	      1.32096952	      0.00603985	     -7.91642617	      0.00000000	      0.00000000	     54.62770422	     -8.86123835	      1.96276234	     89.77712164	      1.56690637	     13.15521424	     -2.29211622	      0.00000000	      0.00000000	    -53.41884818	      2.18508113	      6.39151724	     89.79185387	     -2.74300052	     28.36398791	     27.85270914	     21.52129181	      0.00000000	      0.00000000	     89.68078434	      4.11305713	     24.70701568	     24.54297593	     21.56709130	      0.00000000	      0.00000000
      0.01500000	    -10.57936635	     -2.04006446	     -2.24278841	      0.12553822	      1.14473316	     -0.25055649	      0.00000000	      0.50000000	      0.00000000	      0.25000000	     73.98180223	     -2.98515733	     -3.40125267	     75.66187107	      1.32054877	     -0.03260294	     -7.98069915	      0.00000000	      0.00000000	     54.73986990	     -8.85657608	      1.99444020	     89.81966982	      1.56764897	     13.19946158	     -2.21627201	      0.00000000	      0.00000000	    -53.38127592	      2.20350244	      6.41781322	     89.78745005	     -2.32029451	     25.78939034	     27.59504316	     24.43111795	      0.00000000	      0.00000000	     89.68078749	      4.52427296	     22.49595610	     24.19977906	     24.21951802	      0.00000000	      0.00000000
      0.02000000	    -10.53415539	     -2.03166535	     -2.25109786	      0.12557961	      1.14484877	     -0.25042959	      0.00000000	      0.50000000	      0.00000000	      0.25000000	     73.90915986	     -2.95288767	     -3.37656136	     75.63180068	      1.32002394	     -0.02511606	     -8.02459823	      0.00000000	      0.00000000	     54.67082787	     -8.84145896	      1.99190210	     89.81047979	      1.56748858	     13.21937433	     -2.30157449	      0.00000000	      0.00000000	    -53.45927359	      2.14526187	      6.38453015	     89.78895808	     -2.26684714	     25.43102042	     27.45582883	     25.24674136	      0.00000000	      0.00000000	     89.67903734	      4.56425860	     22.20957580	     24.16219703	     25.11368278	      0.00000000	      0.00000000
      0.02500000	    -10.55150381	     -2.17901473	     -2.21998435	      0.12569933	      1.14484580	     -0.25037519	      0.00000000	      0.50000000	      0.00000000	      0.25000000	     73.83410757	     -2.87330948	     -3.48712439	     75.53026377	      1.31825179	     -0.05157798	     -8.13984222	      0.00000000	      0.00000000	     54.80455260	     -9.01855601	      2.10653987	     89.95921058	      1.57008442	     13.25796287	     -2.07741582	      0.00000000	      0.00000000	    -53.53899385	      2.27629381	      6.49417500	     89.78871586	     -2.36308005	     25.16724540	     27.74195439	     25.53356183	      0.00000000	      0.00000000	     89.67257971	      4.56125768	     21.98538323	     24.51559079	     25.42581662	      0.00000000	      0.00000000
